<svg width="125" height="25" viewBox="0 0 125 25" fill="none" xmlns="http://www.w3.org/2000/svg">
<path d="M24.7698 8.31754L29.4494 5.98503L24.3905 7.30504C23.7807 5.9046 22.9163 4.63439 21.8429 3.56145C19.5126 1.18715 16.7058 0 13.4227 0H2.11095C1.98366 0.00777009 1.85691 0.0229746 1.73133 0.0455368C1.72108 0.0516963 1.70968 0.0555947 1.69786 0.0569701C1.34144 0.132324 1.01043 0.300953 0.737414 0.546257C0.651969 0.618123 0.573444 0.69812 0.502909 0.785178C0.170159 1.18062 -0.00863256 1.68671 0.000425643 2.20751V14.1999L24.5795 7.77129L24.4568 7.83951L24.401 7.86236L0.000425643 19.9914V22.0855C-0.00992636 22.6099 0.168858 23.12 0.502909 23.5191C0.573444 23.6061 0.651969 23.6861 0.737414 23.758C1.01044 24.0033 1.34144 24.1719 1.69786 24.2473C1.70968 24.2486 1.72108 24.2525 1.73133 24.2587C1.8569 24.2813 1.98366 24.2964 2.11095 24.3041H13.4234C16.7067 24.3041 19.5134 23.1132 21.8436 20.7314C24.1737 18.3573 25.3388 15.4976 25.3389 12.1524C25.3488 10.8515 25.1567 9.55726 24.7698 8.31754Z" fill="#0078FF"/>
<path d="M35.9974 18.7548C35.9308 18.7567 35.8647 18.7441 35.8033 18.7179C35.7419 18.6916 35.6867 18.6524 35.6414 18.6027C35.5953 18.5532 35.5591 18.495 35.5351 18.4313C35.511 18.3677 35.4995 18.2998 35.5012 18.2316V6.9251C35.4979 6.78738 35.5483 6.65394 35.6414 6.55402C35.6868 6.5044 35.742 6.4652 35.8033 6.43903C35.8647 6.41285 35.9309 6.4003 35.9974 6.40223H40.2703C42.0035 6.40223 43.4279 6.91968 44.5432 7.95457C45.1322 8.50656 45.5908 9.18727 45.8847 9.94565C46.1973 10.7865 46.3545 11.679 46.3485 12.5782C46.3508 13.0451 46.312 13.5112 46.2324 13.971C46.1575 14.3952 46.041 14.8107 45.8847 15.2112C45.6022 15.9805 45.142 16.6692 44.5432 17.2191C43.9915 17.7296 43.3434 18.1202 42.6385 18.3668C41.8762 18.631 41.0755 18.7622 40.2703 18.7548H35.9974ZM38.3159 16.6623H40.2868C40.727 16.6599 41.1657 16.609 41.5951 16.5105C42.0333 16.4053 42.4414 16.1974 42.7869 15.9034C43.1774 15.5715 43.4839 15.1489 43.6808 14.6712C43.9126 14.1539 44.0285 13.4621 44.0285 12.5957C44.0532 11.8814 43.9349 11.1695 43.6808 10.5033C43.4839 10.0257 43.1773 9.60312 42.7869 9.27118C42.4328 8.98379 42.0193 8.78189 41.5776 8.68064C41.1536 8.58272 40.7205 8.53176 40.2857 8.52868H38.3149C38.2484 8.52678 38.1822 8.53935 38.1208 8.56556C38.0595 8.59176 38.0043 8.631 37.9589 8.68064C37.8658 8.78059 37.8154 8.9141 37.8187 9.05189V16.1394C37.8153 16.2773 37.8657 16.4109 37.9589 16.5109C38.0044 16.5605 38.0598 16.5997 38.1214 16.6258C38.183 16.652 38.2493 16.6644 38.3159 16.6623Z" fill="#2A3042"/>
<path d="M50.3395 18.7543H49.0312C48.9636 18.7549 48.8966 18.7417 48.8341 18.7156C48.7715 18.6895 48.7147 18.651 48.6669 18.6023C48.6192 18.5536 48.5814 18.4957 48.5558 18.432C48.5302 18.3683 48.5173 18.3 48.5178 18.2311V6.92465C48.5172 6.85579 48.53 6.78747 48.5556 6.72372C48.5812 6.65997 48.6189 6.60207 48.6668 6.55338C48.7146 6.50469 48.7714 6.4662 48.834 6.44017C48.8966 6.41414 48.9636 6.40109 49.0312 6.40178H54.0329C54.615 6.39523 55.1933 6.49814 55.7387 6.70536C56.2233 6.91495 56.6666 7.21225 57.0471 7.58286C57.2335 7.77303 57.4 7.9825 57.5438 8.20787C57.6891 8.4365 57.8111 8.6796 57.9081 8.9334C58.1106 9.48359 58.2116 10.0671 58.2061 10.6547C58.2312 11.5218 57.9941 12.3758 57.527 13.1011C57.1785 13.6366 56.7065 14.0769 56.1524 14.3834C56.097 14.4111 56.0478 14.4502 56.0079 14.4981C55.968 14.546 55.9382 14.6018 55.9205 14.662C55.9045 14.7221 55.9037 14.7853 55.9182 14.8458C55.9327 14.9063 55.962 14.9621 56.0034 15.0079C56.4115 15.5706 56.8007 16.1021 57.1708 16.6024C57.541 17.1026 57.9246 17.6342 58.3218 18.197C58.3633 18.2478 58.3918 18.3083 58.4049 18.373C58.4179 18.4378 58.415 18.5048 58.3964 18.5681C58.3796 18.6269 58.343 18.6777 58.293 18.7117C58.2431 18.7457 58.1829 18.7607 58.1232 18.754H56.4505C56.2944 18.7508 56.1413 18.7103 56.0034 18.6358C55.8628 18.5684 55.7385 18.4706 55.639 18.349C55.4511 18.0904 55.2662 17.8345 55.0841 17.5811C54.9021 17.3278 54.7172 17.0718 54.5294 16.8133L53.4363 15.2438C53.3406 15.1142 53.2156 15.01 53.0719 14.9402C52.9339 14.8659 52.7807 14.8254 52.6246 14.822H51.3494C51.2818 14.8213 51.2148 14.8344 51.1522 14.8604C51.0896 14.8865 51.0327 14.925 50.9849 14.9737C50.9371 15.0224 50.8993 15.0803 50.8738 15.1441C50.8482 15.2079 50.8354 15.2762 50.8361 15.345V18.2306C50.8393 18.3683 50.7889 18.5017 50.6959 18.6017C50.6505 18.6515 50.5953 18.6908 50.5339 18.7172C50.4724 18.7435 50.4062 18.7562 50.3395 18.7543ZM51.3498 12.7302H54.0329C54.2544 12.7257 54.4732 12.6799 54.6786 12.5952C54.9086 12.5136 55.1181 12.3811 55.292 12.2072C55.4702 12.0198 55.6158 11.803 55.7226 11.5659C55.8428 11.2784 55.8993 10.9675 55.8882 10.6552C55.8868 10.4398 55.8646 10.225 55.822 10.014C55.7997 9.89019 55.7664 9.76874 55.7226 9.65109C55.6782 9.533 55.6285 9.4177 55.5735 9.3052C55.4325 9.07172 55.2397 8.87525 55.0105 8.73162C54.7123 8.56287 54.3742 8.48112 54.0334 8.49537H51.3503C51.2827 8.49467 51.2156 8.50773 51.1531 8.53377C51.0905 8.55981 51.0336 8.59831 50.9858 8.64702C50.938 8.69572 50.9002 8.75367 50.8746 8.81744C50.8491 8.88121 50.8363 8.94953 50.837 9.01841V12.2077C50.8363 12.2766 50.8491 12.3449 50.8746 12.4087C50.9002 12.4725 50.938 12.5304 50.9858 12.5791C51.0336 12.6278 51.0905 12.6663 51.1531 12.6923C51.2156 12.7184 51.2827 12.7314 51.3503 12.7307L51.3498 12.7302Z" fill="#2A3042"/>
<path d="M62.5785 18.7544H61.2699C61.2034 18.7563 61.1372 18.7437 61.0759 18.7175C61.0145 18.6912 60.9593 18.652 60.914 18.6023C60.8678 18.5528 60.8317 18.4946 60.8077 18.4309C60.7836 18.3673 60.7721 18.2994 60.7738 18.2312V6.94255C60.7704 6.80476 60.8208 6.67126 60.914 6.5713C60.9593 6.52167 61.0145 6.48247 61.0759 6.4563C61.1373 6.43013 61.2034 6.41758 61.2699 6.4195H62.5785C62.6461 6.41881 62.7131 6.43187 62.7757 6.45791C62.8383 6.48395 62.8952 6.52245 62.943 6.57116C62.9908 6.61986 63.0286 6.6778 63.0541 6.74158C63.0797 6.80535 63.0925 6.87367 63.0918 6.94255V18.2314C63.0924 18.3002 63.0795 18.3685 63.0538 18.4322C63.0282 18.4959 62.9905 18.5538 62.9427 18.6025C62.8949 18.6512 62.8381 18.6897 62.7756 18.7158C62.713 18.7419 62.6461 18.7551 62.5785 18.7546V18.7544Z" fill="#2A3042"/>
<path d="M76.3742 6.89177L71.0745 18.5347C71.0427 18.5911 70.9969 18.6379 70.9416 18.6705C70.8864 18.7031 70.8237 18.7202 70.7598 18.7202C70.696 18.7202 70.6333 18.7031 70.578 18.6705C70.5228 18.6379 70.477 18.5911 70.4452 18.5347L65.162 6.89177C65.1345 6.83994 65.1201 6.78194 65.1201 6.72302C65.1201 6.66409 65.1345 6.60609 65.162 6.55427C65.1927 6.50814 65.2351 6.47128 65.2846 6.44753C65.3341 6.42378 65.389 6.41402 65.4435 6.41927H66.9839C67.1369 6.42225 67.2861 6.46902 67.4143 6.55427C67.5464 6.63155 67.6508 6.7498 67.7123 6.89177L70.5438 13.1014C70.5989 13.2254 70.6707 13.287 70.759 13.287C70.8474 13.287 70.9191 13.2254 70.9743 13.1014L73.8065 6.89177C73.8677 6.74961 73.9722 6.63128 74.1045 6.55427C74.2326 6.46891 74.3819 6.42212 74.5349 6.41927H76.0752C76.1321 6.4129 76.1897 6.42204 76.242 6.44575C76.2944 6.46947 76.3396 6.50691 76.3731 6.55427C76.4007 6.60603 76.4152 6.66398 76.4154 6.72289C76.4156 6.7818 76.4014 6.83982 76.3742 6.89177Z" fill="#2A3042"/>
<path d="M80.3321 9.01785V11.0597C80.3315 11.1285 80.3443 11.1969 80.3698 11.2607C80.3954 11.3244 80.4332 11.3824 80.481 11.4311C80.5289 11.4798 80.5858 11.5183 80.6484 11.5443C80.711 11.5704 80.778 11.5834 80.8457 11.5827H85.6816C85.7492 11.582 85.8162 11.595 85.8788 11.6211C85.9414 11.6472 85.9983 11.6857 86.0461 11.7344C86.0939 11.7831 86.1317 11.8411 86.1573 11.9049C86.1828 11.9687 86.1956 12.037 86.1949 12.1059V13.2027C86.1956 13.2716 86.1828 13.3399 86.1572 13.4037C86.1317 13.4674 86.0939 13.5254 86.0461 13.5741C85.9983 13.6228 85.9414 13.6613 85.8788 13.6873C85.8162 13.7134 85.7492 13.7264 85.6816 13.7257H80.8457C80.778 13.725 80.711 13.7381 80.6484 13.7641C80.5858 13.7901 80.5289 13.8286 80.481 13.8773C80.4332 13.926 80.3954 13.984 80.3698 14.0478C80.3443 14.1115 80.3315 14.1799 80.3321 14.2488V16.1049C80.3314 16.1738 80.3442 16.2421 80.3698 16.3059C80.3954 16.3697 80.4332 16.4277 80.481 16.4764C80.5288 16.5251 80.5857 16.5637 80.6483 16.5897C80.7109 16.6157 80.778 16.6288 80.8457 16.6281H86.4268C86.4944 16.6275 86.5614 16.6406 86.6239 16.6667C86.6865 16.6928 86.7433 16.7313 86.7911 16.78C86.8389 16.8287 86.8767 16.8865 86.9023 16.9503C86.9279 17.014 86.9409 17.0823 86.9403 17.1511V18.2311C86.9408 18.3 86.9279 18.3682 86.9023 18.432C86.8767 18.4957 86.8388 18.5536 86.791 18.6023C86.7433 18.6509 86.6865 18.6895 86.6239 18.7156C86.5614 18.7417 86.4944 18.7549 86.4268 18.7543H78.5269C78.4593 18.7549 78.3923 18.7417 78.3298 18.7156C78.2672 18.6895 78.2105 18.651 78.1627 18.6023C78.1149 18.5536 78.0771 18.4957 78.0515 18.432C78.0259 18.3682 78.013 18.3 78.0136 18.2311V6.92463C78.0129 6.85576 78.0257 6.78745 78.0513 6.7237C78.0769 6.65995 78.1147 6.60205 78.1625 6.55336C78.2103 6.50467 78.2671 6.46618 78.3297 6.44015C78.3923 6.41412 78.4593 6.40107 78.5269 6.40176H86.4268C86.4944 6.40105 86.5615 6.41409 86.6241 6.4401C86.6867 6.46612 86.7435 6.5046 86.7913 6.55329C86.8392 6.60198 86.877 6.65991 86.9026 6.72367C86.9281 6.78743 86.941 6.85575 86.9403 6.92463V7.97089C86.9409 8.03975 86.928 8.10804 86.9024 8.17178C86.8768 8.23552 86.839 8.29342 86.7912 8.34212C86.7434 8.39082 86.6865 8.42934 86.624 8.45543C86.5614 8.48152 86.4944 8.49467 86.4268 8.4941H80.8457C80.778 8.49338 80.711 8.50643 80.6484 8.53246C80.5858 8.55848 80.5289 8.59698 80.481 8.64569C80.4332 8.6944 80.3954 8.75234 80.3698 8.81612C80.3443 8.8799 80.3315 8.94825 80.3321 9.01714V9.01785Z" fill="#2A3042"/>
<path d="M99.9246 6.92463V18.2304C99.9252 18.2993 99.9123 18.3675 99.8867 18.4313C99.8611 18.495 99.8233 18.5529 99.7755 18.6016C99.7277 18.6503 99.6709 18.6888 99.6084 18.7149C99.5458 18.741 99.4788 18.7542 99.4113 18.7536H98.1194C98.0518 18.7542 97.9848 18.741 97.9223 18.7149C97.8597 18.6888 97.8029 18.6503 97.7551 18.6016C97.7074 18.5529 97.6696 18.495 97.644 18.4313C97.6184 18.3675 97.6055 18.2993 97.606 18.2304V14.367C97.6067 14.2981 97.5939 14.2298 97.5683 14.166C97.5428 14.1022 97.505 14.0443 97.4572 13.9956C97.4094 13.9469 97.3525 13.9084 97.2899 13.8824C97.2273 13.8563 97.1603 13.8433 97.0927 13.8439H92.1408C92.0732 13.8432 92.0061 13.8563 91.9435 13.8823C91.8809 13.9083 91.824 13.9468 91.7762 13.9955C91.7284 14.0442 91.6906 14.1022 91.665 14.166C91.6394 14.2298 91.6266 14.2981 91.6273 14.367V18.2311C91.6278 18.3 91.6149 18.3682 91.5893 18.432C91.5637 18.4957 91.526 18.5536 91.4782 18.6023C91.4304 18.651 91.3736 18.6895 91.3111 18.7156C91.2485 18.7417 91.1815 18.7549 91.1139 18.7543H89.8222C89.7546 18.7549 89.6876 18.7418 89.6251 18.7157C89.5625 18.6896 89.5057 18.6511 89.4579 18.6024C89.4101 18.5537 89.3723 18.4958 89.3467 18.432C89.3211 18.3683 89.3081 18.3 89.3087 18.2311V6.92463C89.3081 6.85575 89.3209 6.78743 89.3465 6.72367C89.372 6.65991 89.4099 6.60198 89.4577 6.55329C89.5055 6.5046 89.5624 6.46612 89.625 6.4401C89.6876 6.41409 89.7546 6.40105 89.8222 6.40176H91.1139C91.1815 6.40107 91.2486 6.41412 91.3111 6.44015C91.3737 6.46618 91.4306 6.50467 91.4784 6.55336C91.5262 6.60205 91.564 6.65995 91.5895 6.7237C91.6151 6.78745 91.6279 6.85576 91.6273 6.92463V11.2282C91.6266 11.2971 91.6394 11.3654 91.665 11.4292C91.6906 11.493 91.7284 11.551 91.7762 11.5997C91.824 11.6484 91.8809 11.6869 91.9435 11.7129C92.0061 11.7389 92.0732 11.752 92.1408 11.7513H97.0927C97.1603 11.752 97.2273 11.7389 97.2899 11.7129C97.3525 11.6868 97.4094 11.6483 97.4572 11.5996C97.505 11.5509 97.5428 11.493 97.5683 11.4292C97.5939 11.3654 97.6067 11.2971 97.606 11.2282V6.92463C97.6054 6.85576 97.6182 6.78745 97.6438 6.7237C97.6693 6.65995 97.7071 6.60205 97.7549 6.55336C97.8027 6.50467 97.8596 6.46618 97.9222 6.44015C97.9848 6.41412 98.0518 6.40107 98.1194 6.40176H99.4113C99.4789 6.40107 99.5459 6.41412 99.6085 6.44015C99.671 6.46618 99.7279 6.50467 99.7757 6.55336C99.8235 6.60205 99.8613 6.65995 99.8869 6.7237C99.9124 6.78745 99.9253 6.85576 99.9246 6.92463Z" fill="#2A3042"/>
<path d="M105.638 18.6021C105.025 18.3754 104.466 18.0189 103.998 17.5562C103.529 17.0983 103.167 16.5389 102.938 15.9195C102.686 15.2348 102.563 14.5078 102.574 13.7766V6.94244C102.573 6.87347 102.585 6.80495 102.611 6.74109C102.637 6.67723 102.675 6.61941 102.723 6.57119C102.768 6.52303 102.822 6.48471 102.882 6.4586C102.942 6.4325 103.006 6.41915 103.071 6.4194H104.379C104.447 6.41868 104.514 6.43173 104.577 6.45775C104.639 6.48378 104.696 6.52229 104.744 6.571C104.792 6.61971 104.83 6.67765 104.855 6.74143C104.881 6.80521 104.894 6.87355 104.893 6.94244V13.7596C104.874 14.2881 104.976 14.8137 105.191 15.2953C105.369 15.662 105.616 15.9889 105.92 16.2571C106.196 16.488 106.518 16.655 106.863 16.7466C107.04 16.7916 107.203 16.8254 107.352 16.8479C107.492 16.8697 107.633 16.881 107.774 16.8816C108.077 16.873 108.377 16.8277 108.668 16.7466C109.017 16.6643 109.341 16.4962 109.612 16.2571C109.928 15.9977 110.183 15.6689 110.358 15.2953C110.572 14.8137 110.674 14.2881 110.656 13.7596V6.94244C110.655 6.87356 110.668 6.80524 110.693 6.74147C110.719 6.6777 110.757 6.61976 110.804 6.57105C110.852 6.52234 110.909 6.48385 110.972 6.45781C111.034 6.43177 111.101 6.41871 111.169 6.4194H112.461C112.528 6.41871 112.595 6.43177 112.658 6.45781C112.721 6.48385 112.777 6.52234 112.825 6.57105C112.873 6.61976 112.911 6.6777 112.936 6.74147C112.962 6.80524 112.975 6.87356 112.974 6.94244V13.7764C112.975 14.1524 112.945 14.5278 112.883 14.8984C112.824 15.2468 112.732 15.5887 112.61 15.9195C112.377 16.5329 112.022 17.0904 111.567 17.5562C111.095 18.0141 110.537 18.3699 109.927 18.6021C109.238 18.8604 108.508 18.9863 107.774 18.9736C107.045 18.9873 106.321 18.8613 105.638 18.6021Z" fill="#2A3042"/>
<path d="M124.353 10.6377C124.252 10.912 124.118 11.1727 123.955 11.4139C123.787 11.6525 123.573 11.8535 123.326 12.0045C123.207 12.0876 123.079 12.1556 122.945 12.2071C122.834 12.241 122.785 12.2663 122.796 12.283C122.857 12.3211 122.924 12.3469 122.994 12.3589C123.149 12.4154 123.293 12.4716 123.425 12.5277C123.722 12.6822 123.987 12.8945 124.203 13.1527C124.447 13.4133 124.644 13.7162 124.783 14.0472C124.928 14.3818 125.002 14.7442 124.998 15.11C125.014 15.6984 124.913 16.284 124.7 16.8315C124.524 17.2696 124.245 17.6574 123.889 17.9618C123.546 18.2604 123.137 18.4689 122.697 18.569C122.465 18.6254 122.228 18.6705 121.985 18.7041C121.732 18.7386 121.478 18.7555 121.223 18.7549H116.139C116.071 18.7554 116.004 18.7422 115.941 18.7161C115.879 18.69 115.822 18.6515 115.774 18.6028C115.727 18.5541 115.689 18.4962 115.663 18.4325C115.638 18.3688 115.625 18.3005 115.625 18.2316V6.92463C115.625 6.85576 115.637 6.78745 115.663 6.7237C115.689 6.65995 115.726 6.60204 115.774 6.55336C115.822 6.50467 115.879 6.46618 115.941 6.44015C116.004 6.41412 116.071 6.40107 116.139 6.40176H120.958C121.212 6.40176 121.45 6.41296 121.67 6.43534C121.891 6.45772 122.112 6.49153 122.333 6.53677C122.743 6.62867 123.128 6.81314 123.459 7.07659C123.805 7.34456 124.07 7.70746 124.221 8.12284C124.431 8.66455 124.527 9.24521 124.502 9.82714C124.499 10.1041 124.448 10.3784 124.353 10.6377ZM118.457 11.4309H120.792C121.004 11.4356 121.214 11.3893 121.405 11.2959C121.571 11.2084 121.717 11.0879 121.836 10.9414C121.954 10.791 122.044 10.6194 122.101 10.4354C122.16 10.2559 122.188 10.0676 122.184 9.87857C122.184 9.69928 122.15 9.52165 122.084 9.35535C122.025 9.19299 121.935 9.04397 121.819 8.9166C121.709 8.79549 121.581 8.69303 121.439 8.61303C121.291 8.53335 121.126 8.49276 120.958 8.49499H118.458C118.39 8.49428 118.323 8.50731 118.26 8.53334C118.198 8.55937 118.141 8.59787 118.093 8.64658C118.045 8.69529 118.007 8.75323 117.982 8.81701C117.956 8.88079 117.943 8.94913 117.944 9.01802V10.9079C117.943 10.9768 117.956 11.0451 117.982 11.1089C118.007 11.1727 118.045 11.2307 118.093 11.2794C118.141 11.3282 118.198 11.3667 118.26 11.3927C118.323 11.4187 118.39 11.4318 118.458 11.4311L118.457 11.4309ZM121.785 16.51C121.967 16.4184 122.126 16.2856 122.249 16.1218C122.387 15.9638 122.494 15.7806 122.564 15.582C122.645 15.3962 122.685 15.1945 122.681 14.9913C122.682 14.7947 122.643 14.6 122.566 14.4198C122.489 14.2396 122.376 14.0779 122.233 13.9452C121.946 13.6639 121.526 13.5232 120.975 13.5232H118.457C118.39 13.5225 118.323 13.5356 118.26 13.5616C118.197 13.5876 118.141 13.6261 118.093 13.6749C118.045 13.7236 118.007 13.7816 117.981 13.8454C117.956 13.9092 117.943 13.9775 117.944 14.0464V16.139C117.943 16.2079 117.956 16.2762 117.981 16.34C118.007 16.4038 118.045 16.4618 118.093 16.5105C118.141 16.5592 118.197 16.5978 118.26 16.6238C118.323 16.6498 118.39 16.6629 118.457 16.6622H121.223C121.421 16.6651 121.615 16.6125 121.785 16.51Z" fill="#2A3042"/>
</svg>
