<svg width="30" height="25" viewBox="0 0 30 25" fill="none" xmlns="http://www.w3.org/2000/svg">
<path d="M24.7698 8.31754L29.4494 5.98503L24.3905 7.30504C23.7807 5.9046 22.9163 4.63439 21.8429 3.56145C19.5126 1.18715 16.7058 0 13.4227 0H2.11095C1.98366 0.00777009 1.85691 0.0229746 1.73133 0.0455368C1.72108 0.0516963 1.70968 0.0555947 1.69786 0.0569701C1.34144 0.132324 1.01043 0.300953 0.737414 0.546257C0.651969 0.618123 0.573444 0.69812 0.502909 0.785178C0.170159 1.18062 -0.00863256 1.68671 0.000425643 2.20751V14.1999L24.5795 7.77129L24.4568 7.83951L24.401 7.86236L0.000425643 19.9914V22.0855C-0.00992636 22.6099 0.168858 23.12 0.502909 23.5191C0.573444 23.6061 0.651969 23.6861 0.737414 23.758C1.01044 24.0033 1.34144 24.1719 1.69786 24.2473C1.70968 24.2486 1.72108 24.2525 1.73133 24.2587C1.8569 24.2813 1.98366 24.2964 2.11095 24.3041H13.4234C16.7067 24.3041 19.5134 23.1132 21.8436 20.7314C24.1737 18.3573 25.3388 15.4976 25.3389 12.1524C25.3488 10.8515 25.1567 9.55726 24.7698 8.31754Z" fill="#0078FF"/>
</svg>
